<svg width="28" height="22" viewBox="0 0 28 22" fill="none" xmlns="http://www.w3.org/2000/svg">
<g id="chat-1-line">
<path id="Vector" d="M11.6515 2.75H16.2249C18.6508 2.75 20.9774 3.52262 22.6928 4.89788C24.4082 6.27315 25.3719 8.13841 25.3719 10.0833C25.3719 12.0283 24.4082 13.8935 22.6928 15.2688C20.9774 16.6441 18.6508 17.4167 16.2249 17.4167V20.625C10.5081 18.7917 2.50452 16.0417 2.50452 10.0833C2.50452 8.13841 3.46821 6.27315 5.18359 4.89788C6.89897 3.52262 9.22553 2.75 11.6515 2.75ZM13.9382 15.5833H16.2249C17.1258 15.5833 18.0179 15.4411 18.8502 15.1647C19.6825 14.8883 20.4388 14.4831 21.0758 13.9724C21.7128 13.4617 22.2182 12.8554 22.5629 12.1881C22.9077 11.5208 23.0851 10.8056 23.0851 10.0833C23.0851 9.36106 22.9077 8.64587 22.5629 7.97857C22.2182 7.31128 21.7128 6.70497 21.0758 6.19425C20.4388 5.68352 19.6825 5.2784 18.8502 5.002C18.0179 4.72559 17.1258 4.58333 16.2249 4.58333H11.6515C9.83201 4.58333 8.08709 5.1628 6.80056 6.19425C5.51402 7.2257 4.79125 8.62464 4.79125 10.0833C4.79125 13.3925 7.60622 15.5522 13.9382 17.8567V15.5833Z" fill="#2681ED"/>
</g>
</svg>
