<svg width="28" height="22" viewBox="0 0 28 22" fill="none" xmlns="http://www.w3.org/2000/svg">
<g id="mail-unread-fill" clip-path="url(#clip0_15_474)">
<path id="Vector" d="M21.7165 7.78526C22.8508 8.22813 24.1354 8.35924 25.3719 8.15834V18.3333C25.3719 18.5765 25.2514 18.8096 25.037 18.9815C24.8225 19.1534 24.5317 19.25 24.2285 19.25H3.64788C3.34464 19.25 3.05382 19.1534 2.8394 18.9815C2.62498 18.8096 2.50452 18.5765 2.50452 18.3333V3.66667C2.50452 3.42356 2.62498 3.1904 2.8394 3.01849C3.05382 2.84658 3.34464 2.75001 3.64788 2.75001H18.626C18.5505 3.04609 18.5117 3.35317 18.5117 3.66667C18.5098 4.75572 18.9935 5.80943 19.8757 6.63759L14.0079 10.7094L6.67438 5.71817L5.19486 7.11517L14.0217 13.1239L21.7165 7.78526ZM24.2285 6.41667C23.778 6.41667 23.332 6.34554 22.9158 6.20734C22.4997 6.06914 22.1216 5.86658 21.803 5.61122C21.4845 5.35585 21.2319 5.0527 21.0595 4.71905C20.8871 4.38541 20.7984 4.02781 20.7984 3.66667C20.7984 3.30554 20.8871 2.94794 21.0595 2.61429C21.2319 2.28065 21.4845 1.97749 21.803 1.72213C22.1216 1.46677 22.4997 1.2642 22.9158 1.126C23.332 0.987803 23.778 0.916672 24.2285 0.916672C25.1382 0.916672 26.0107 1.2064 26.6539 1.72213C27.2972 2.23785 27.6586 2.93733 27.6586 3.66667C27.6586 4.39602 27.2972 5.09549 26.6539 5.61122C26.0107 6.12694 25.1382 6.41667 24.2285 6.41667Z" fill="#FFB422"/>
</g>
<defs>
<clipPath id="clip0_15_474">
<rect width="27.4408" height="22" fill="white" transform="translate(0.217773)"/>
</clipPath>
</defs>
</svg>
