<svg width="28" height="22" viewBox="0 0 28 22" fill="none" xmlns="http://www.w3.org/2000/svg">
<g id="phone-fill">
<path id="Vector" d="M24.2285 15.0517V18.293C24.2286 18.5251 24.1189 18.7486 23.9216 18.9183C23.7243 19.0881 23.4539 19.1916 23.1652 19.2078C22.6655 19.2353 22.2573 19.25 21.9418 19.25C11.8378 19.25 3.64789 12.6839 3.64789 4.58333C3.64789 4.33033 3.66504 4.00308 3.70048 3.6025C3.72075 3.37099 3.84979 3.15426 4.06156 2.99604C4.27334 2.83782 4.55209 2.7499 4.84156 2.75H8.88451C9.02633 2.74989 9.16314 2.79204 9.26837 2.86827C9.3736 2.9445 9.43972 3.04937 9.45391 3.1625C9.4802 3.37333 9.50421 3.54108 9.52708 3.6685C9.75431 4.93985 10.22 6.17635 10.9083 7.33608C11.0169 7.51942 10.946 7.7385 10.7402 7.85583L8.27281 9.26933C9.78143 12.0876 12.5828 14.3335 16.098 15.543L17.8588 13.5685C17.9308 13.4878 18.0358 13.43 18.1555 13.405C18.2752 13.3801 18.4021 13.3896 18.5139 13.4319C19.9603 13.9827 21.5022 14.3551 23.0874 14.5365C23.2463 14.5548 23.4556 14.575 23.7163 14.5952C23.8572 14.6067 23.9877 14.6599 24.0825 14.7442C24.1774 14.8285 24.2298 14.9381 24.2296 15.0517H24.2285Z" fill="#00C938"/>
</g>
</svg>
